<?xml version="1.0" encoding="utf-8"?>
<!-- Generator: Adobe Illustrator 22.0.0, SVG Export Plug-In . SVG Version: 6.00 Build 0)  -->
<svg width="440" height="200" version="1.1" id="Layer_1" xmlns="http://www.w3.org/2000/svg" xmlns:xlink="http://www.w3.org/1999/xlink" x="0px" y="0px"
	 viewBox="0 0 109.4 188.5" style="enable-background:new 0 0 109.4 188.5;" xml:space="preserve">
<style type="text/css">
	.st0{fill:#636340;}
	.st1{fill:#82C91E;}
	.st3{font-size:24.1652px;}
	.st4{font-family:  'Poiret One', 'cursive';}
</style>
<g>
	<path class="st0" d="M30.7,138.2l-0.3-20.9l-0.3-20.9l1,0.6l-20.4,11.9l0.5-0.9c0,2.9,0,5.9,0,8.8c0,2.9-0.1,5.9-0.2,8.8
		c0,2.9-0.2,5.9-0.3,8.8c-0.1,2.9-0.3,5.9-0.5,8.8h-0.2c-0.2-2.9-0.4-5.9-0.5-8.8c-0.1-2.9-0.2-5.9-0.3-8.8
		c-0.1-2.9-0.1-5.9-0.2-8.8c0-2.9,0-5.9,0-8.8l0-0.6l0.5-0.3l20.7-11.3l1.1-0.6l0,1.2l-0.3,20.9l-0.3,20.9H30.7z"/>
</g>
<g>
	<path class="st0" d="M10.4,146.6l0.2,3.3l-0.3-0.3c1.7,0,3.5-0.1,5.2-0.4c1.7-0.2,3.4-0.5,5.1-0.9c1.7-0.4,3.3-0.9,5-1.5
		c1.6-0.5,3.3-1,5-1.5L30,146c0.2-1.5,0.3-3,0.7-4.6h0.2c0.4,1.5,0.5,3,0.7,4.6l0,0.5l-0.5,0.3c-1.6,0.8-3.2,1.5-5,2
		c-0.9,0.2-1.7,0.4-2.6,0.6c-0.9,0.2-1.8,0.3-2.6,0.5c-3.5,0.5-7.1,0.8-10.6,0.4l-0.3,0l0-0.3l0.2-3.3H10.4z"/>
</g>
<g>
	<path class="st0" d="M58.3,127.1l0.2,7.9l0,0.1l-0.1,0c-1.6,1.1-3.2,1.7-4.9,2.5c-1.7,0.7-3.4,1.3-5.1,1.9
		c-1.7,0.6-3.5,1.1-5.2,1.5c-1.8,0.4-3.6,0.7-5.4,0.8l-0.2,0l0-0.2l0.1-1.8h0.1l0.1,1.8l-0.2-0.2c1.8-0.4,3.5-0.8,5.3-1.2
		c1.7-0.5,3.5-0.9,5.2-1.4c1.7-0.5,3.4-1.1,5.1-1.7c1.7-0.7,3.4-1.3,4.9-2.2L58,135L58.3,127.1L58.3,127.1z"/>
</g>
<g>
	<path class="st0" d="M37.6,130.5l-0.3-29.6L37,71.3l0-0.4l0.4-0.2l20.4-11.8l1.4-0.8l0,1.6l0.1,14.5c0,4.8,0,9.7-0.1,14.5
		c-0.1,4.8-0.1,9.7-0.3,14.5c-0.1,4.8-0.3,9.7-0.5,14.5h-0.2c-0.2-4.8-0.4-9.7-0.5-14.5c-0.2-4.8-0.2-9.7-0.3-14.5
		c-0.1-4.8-0.1-9.7-0.1-14.5l0.1-14.5l1.4,0.8L38,71.9l0.4-0.6l-0.3,29.6l-0.3,29.6H37.6z"/>
</g>
<g>
	<path class="st0" d="M85.5,72.3L85,24.5l0.9,0.5L65.5,38.6l0.4-0.7l0.2,17.4c0.1,5.8,0,11.6,0,17.4c-0.1,5.8-0.1,11.6-0.3,17.4
		c-0.1,5.8-0.3,11.6-0.6,17.4H65c-0.3-5.8-0.4-11.6-0.6-17.4c-0.2-5.8-0.2-11.6-0.3-17.4c0-5.8-0.1-11.6,0-17.4l0.2-17.4l0-0.4
		l0.4-0.2L85.3,24l0.9-0.6l0,1.1l-0.5,47.8H85.5z"/>
</g>
<g>
	<path class="st0" d="M66.7,119.5l0.3,11.4l-0.5-0.4c3.6-1.3,7.2-2.5,10.7-4c1.7-0.7,3.5-1.5,5.1-2.4c1.6-0.9,3.1-2,4.3-3.4
		l-0.2,0.6c0-2.3-0.1-4.7-0.2-7c0-2.3,0-4.7,0.1-7c0.1-2.3,0.2-4.7,0.3-7c0.1-2.3,0.3-4.7,0.6-7h0.2c0.2,2.3,0.4,4.7,0.6,7
		c0.1,2.3,0.2,4.7,0.3,7c0.1,2.3,0.1,4.7,0.1,7c0,2.3-0.1,4.7-0.2,7l0,0.4l-0.2,0.2c-1.4,1.5-3.1,2.6-4.8,3.5
		c-1.7,0.9-3.5,1.7-5.3,2.3c-3.6,1.3-7.3,2.4-10.9,3.5l-0.5,0.2l0-0.5l0.3-11.4H66.7z"/>
</g>
<g>
	<path class="st1" d="M10.4,144.3c1.6-0.4,3.1-0.8,4.7-1.2c1.6-0.4,3.1-0.9,4.6-1.4c3.1-1,6.1-2.1,9-3.4c5.9-2.4,11.7-5.3,17.2-8.5
		c5.5-3.3,10.8-6.9,15.6-11c4.9-4.1,9.4-8.5,13.5-13.4c4.2-4.8,7.7-10.1,10.8-15.6c3.2-5.5,5.6-11.4,7.8-17.4
		c4.1-12.1,6.4-24.8,7.3-37.7c0.7,12.9-0.7,26.1-4.4,38.7c-1.9,6.3-4.3,12.4-7.5,18.2c-0.4,0.7-0.7,1.5-1.2,2.2l-1.3,2.1L85.5,98
		L84.9,99l-0.7,1l-2.9,4l-3.1,3.9c-4.3,5-9,9.6-14.2,13.7c-5.2,4.1-10.7,7.7-16.5,10.7c-5.8,3.1-11.9,5.6-18.1,7.6
		c-3.1,1-6.2,1.9-9.4,2.6C16.9,143.3,13.7,143.9,10.4,144.3z"/>
</g>
<text transform="matrix(0.9295 0 0 1 19.5342 171.8476)" class="st3 st4">E. V. A.</text>
</svg>
