<?xml version="1.0" encoding="utf-8"?>
<!-- Generator: Adobe Illustrator 22.0.0, SVG Export Plug-In . SVG Version: 6.00 Build 0)  -->
<svg version="1.1" xmlns="http://www.w3.org/2000/svg" xmlns:xlink="http://www.w3.org/1999/xlink" x="0px" y="0px"
	 viewBox="0 0 32 32" style="enable-background:new 0 0 32 32;" xml:space="preserve">
<style type="text/css">
	.st0{display:none;}
	.st1{fill:none;stroke:#000000;stroke-miterlimit:10;}
	.st2{fill:#82C91E;}
	.st3{fill:#636340;}
	.st4{fill:none;stroke:#636340;stroke-miterlimit:10;}
	.st5{fill:none;stroke:#636340;stroke-width:0.75;stroke-miterlimit:10;}
	.st6{fill:#FFFFFF;}
</style>
<g id="Layer_1" class="st0">
</g>
<g id="Logo_1">
</g>
<g id="Logo_2">
</g>
<g id="Logo_3">
</g>
<g id="_x33_2x32">
	<g>
		<path class="st6" d="M10.8,27.3l-0.2-9.7l0.4,0.2l-4.7,2.8l0.2-0.3c0,1.4,0,2.7-0.1,4.1c0,1.4-0.1,2.7-0.3,4.1H6
			c-0.1-1.4-0.2-2.7-0.3-4.1c-0.1-1.4-0.1-2.7-0.1-4.1l0-0.2L5.9,20l4.8-2.6l0.4-0.2l0,0.4L10.8,27.3L10.8,27.3z"/>
	</g>
	<g>
		<path class="st6" d="M6.1,29.2L6.2,30l-0.1-0.1c0.8,0,1.6-0.2,2.4-0.4c0.8-0.2,1.5-0.5,2.3-0.7l-0.2,0.3c0.1-0.4,0.1-0.7,0.3-1.1
			h0.1c0.1,0.4,0.2,0.7,0.3,1.1l0,0.2l-0.2,0.1c-0.4,0.2-0.7,0.4-1.1,0.5C9.4,30,8.9,30,8.5,30.1c-0.8,0.1-1.7,0.1-2.5,0l-0.1,0
			L6,30L6.1,29.2L6.1,29.2z"/>
	</g>
	<g>
		<path class="st6" d="M17.2,24.7l0.1,1.8l0,0.1l-0.1,0.1c-0.4,0.3-0.8,0.5-1.1,0.6c-0.4,0.2-0.8,0.3-1.2,0.5
			c-0.8,0.3-1.7,0.5-2.5,0.4l-0.2,0l0-0.1c0-0.1,0.1-0.3,0.1-0.4h0.1c0.1,0.1,0.1,0.3,0.1,0.4l-0.2-0.2c0.8-0.3,1.5-0.6,2.4-0.7
			c0.4-0.1,0.8-0.2,1.2-0.3c0.4-0.1,0.8-0.3,1.1-0.4l-0.1,0.1L17.2,24.7L17.2,24.7z"/>
	</g>
	<g>
		<path class="st6" d="M12.4,25.5l-0.2-13.7l0-0.1l0.1-0.1L17,8.8l0.5-0.3l0,0.6c0,2.2,0.1,4.5,0,6.7c0,2.2-0.1,4.5-0.3,6.7h-0.1
			c-0.2-2.2-0.3-4.5-0.3-6.7c-0.1-2.2-0.1-4.5,0-6.7l0.5,0.3L12.5,12l0.1-0.2L12.4,25.5L12.4,25.5z"/>
	</g>
	<g>
		<path class="st6" d="M23.4,12L23.2,1l0.3,0.2l-4.7,3.2L19,4.1c0,2.7,0.1,5.4,0.1,8c-0.1,2.7-0.1,5.4-0.3,8h-0.1
			c-0.2-2.7-0.3-5.4-0.3-8c-0.1-2.7,0-5.4,0.1-8l0-0.2l0.1-0.1l4.8-3l0.4-0.2l0,0.4L23.4,12L23.4,12z"/>
	</g>
	<g>
		<path class="st6" d="M19.1,22.9l0.1,2.6L19,25.4c0.8-0.3,1.7-0.6,2.5-0.9c0.8-0.3,1.6-0.7,2.1-1.3l-0.1,0.2c0-1.1-0.1-2.2,0-3.2
			c0.1-1.1,0.1-2.2,0.3-3.2h0.1c0.2,1.1,0.3,2.2,0.3,3.2c0.1,1.1,0,2.2,0,3.2l0,0.1l-0.1,0.1c-0.7,0.7-1.6,1-2.4,1.3
			c-0.8,0.3-1.7,0.5-2.5,0.8l-0.2,0.1l0-0.2L19.1,22.9L19.1,22.9z"/>
	</g>
	<g>
		<path class="st6" d="M6.1,28.7c1.4-0.4,2.9-0.8,4.2-1.4c0.7-0.3,1.4-0.6,2-0.9c0.7-0.3,1.3-0.7,1.9-1.1c2.5-1.5,4.8-3.4,6.7-5.6
			c1.9-2.2,3.4-4.8,4.3-7.6c0.6-1.4,0.8-2.8,1.2-4.3c0.3-1.5,0.4-2.9,0.6-4.4c0,0.7,0,1.5,0,2.2l0,1.1c0,0.4,0,0.8-0.1,1.1
			c-0.3,1.5-0.4,3-0.9,4.4c-0.8,2.9-2.3,5.7-4.3,8c-2,2.3-4.4,4.3-7.1,5.7C12,27.3,9.1,28.3,6.1,28.7z"/>
	</g>
</g>
</svg>
